%TF.GenerationSoftware,KiCad,Pcbnew,7.0.7*%
%TF.CreationDate,2023-08-18T22:09:48-04:00*%
%TF.ProjectId,OpenAndromeda,4f70656e-416e-4647-926f-6d6564612e6b,rev?*%
%TF.SameCoordinates,Original*%
%TF.FileFunction,Drillmap*%
%TF.FilePolarity,Positive*%
%FSLAX45Y45*%
G04 Gerber Fmt 4.5, Leading zero omitted, Abs format (unit mm)*
G04 Created by KiCad (PCBNEW 7.0.7) date 2023-08-18 22:09:48*
%MOMM*%
%LPD*%
G01*
G04 APERTURE LIST*
%ADD10C,0.100000*%
%ADD11C,0.200000*%
G04 APERTURE END LIST*
D10*
X7286000Y-9516000D02*
X7294000Y-10598000D01*
X5168000Y-7898000D02*
X5656000Y-7898000D01*
X19837400Y-8305800D02*
X19837400Y-13538200D01*
X7294000Y-10598000D02*
X8388000Y-11691000D01*
X5520000Y-10570000D02*
X5520000Y-8432800D01*
X5245000Y-11049000D02*
X5245000Y-10570000D01*
X4840000Y-8432800D02*
X4840000Y-8230000D01*
X19837400Y-13538200D02*
X19202400Y-13538200D01*
X5520000Y-8432800D02*
X4840000Y-8432800D01*
X7663000Y-13464000D02*
X5245000Y-11049000D01*
X5656000Y-7898000D02*
X7286000Y-9516000D01*
X8388000Y-11691000D02*
X16154400Y-11684000D01*
X16154400Y-11684000D02*
X19160000Y-8305800D01*
X4840000Y-8230000D02*
X5168000Y-7898000D01*
X5245000Y-10570000D02*
X5520000Y-10570000D01*
X19160000Y-8305800D02*
X19837400Y-8305800D01*
X19177000Y-13538200D02*
X7663000Y-13464000D01*
X19202400Y-13538200D02*
X19177000Y-13538200D01*
D11*
X5095777Y-13854684D02*
X5095777Y-13654684D01*
X5095777Y-13654684D02*
X5143396Y-13654684D01*
X5143396Y-13654684D02*
X5171967Y-13664208D01*
X5171967Y-13664208D02*
X5191015Y-13683255D01*
X5191015Y-13683255D02*
X5200539Y-13702303D01*
X5200539Y-13702303D02*
X5210063Y-13740398D01*
X5210063Y-13740398D02*
X5210063Y-13768969D01*
X5210063Y-13768969D02*
X5200539Y-13807065D01*
X5200539Y-13807065D02*
X5191015Y-13826112D01*
X5191015Y-13826112D02*
X5171967Y-13845160D01*
X5171967Y-13845160D02*
X5143396Y-13854684D01*
X5143396Y-13854684D02*
X5095777Y-13854684D01*
X5295777Y-13854684D02*
X5295777Y-13721350D01*
X5295777Y-13759446D02*
X5305301Y-13740398D01*
X5305301Y-13740398D02*
X5314824Y-13730874D01*
X5314824Y-13730874D02*
X5333872Y-13721350D01*
X5333872Y-13721350D02*
X5352920Y-13721350D01*
X5419586Y-13854684D02*
X5419586Y-13721350D01*
X5419586Y-13654684D02*
X5410063Y-13664208D01*
X5410063Y-13664208D02*
X5419586Y-13673731D01*
X5419586Y-13673731D02*
X5429110Y-13664208D01*
X5429110Y-13664208D02*
X5419586Y-13654684D01*
X5419586Y-13654684D02*
X5419586Y-13673731D01*
X5543396Y-13854684D02*
X5524348Y-13845160D01*
X5524348Y-13845160D02*
X5514824Y-13826112D01*
X5514824Y-13826112D02*
X5514824Y-13654684D01*
X5648158Y-13854684D02*
X5629110Y-13845160D01*
X5629110Y-13845160D02*
X5619586Y-13826112D01*
X5619586Y-13826112D02*
X5619586Y-13654684D01*
X5876729Y-13854684D02*
X5876729Y-13654684D01*
X5876729Y-13654684D02*
X5943396Y-13797541D01*
X5943396Y-13797541D02*
X6010062Y-13654684D01*
X6010062Y-13654684D02*
X6010062Y-13854684D01*
X6191015Y-13854684D02*
X6191015Y-13749922D01*
X6191015Y-13749922D02*
X6181491Y-13730874D01*
X6181491Y-13730874D02*
X6162443Y-13721350D01*
X6162443Y-13721350D02*
X6124348Y-13721350D01*
X6124348Y-13721350D02*
X6105301Y-13730874D01*
X6191015Y-13845160D02*
X6171967Y-13854684D01*
X6171967Y-13854684D02*
X6124348Y-13854684D01*
X6124348Y-13854684D02*
X6105301Y-13845160D01*
X6105301Y-13845160D02*
X6095777Y-13826112D01*
X6095777Y-13826112D02*
X6095777Y-13807065D01*
X6095777Y-13807065D02*
X6105301Y-13788017D01*
X6105301Y-13788017D02*
X6124348Y-13778493D01*
X6124348Y-13778493D02*
X6171967Y-13778493D01*
X6171967Y-13778493D02*
X6191015Y-13768969D01*
X6286253Y-13721350D02*
X6286253Y-13921350D01*
X6286253Y-13730874D02*
X6305301Y-13721350D01*
X6305301Y-13721350D02*
X6343396Y-13721350D01*
X6343396Y-13721350D02*
X6362443Y-13730874D01*
X6362443Y-13730874D02*
X6371967Y-13740398D01*
X6371967Y-13740398D02*
X6381491Y-13759446D01*
X6381491Y-13759446D02*
X6381491Y-13816588D01*
X6381491Y-13816588D02*
X6371967Y-13835636D01*
X6371967Y-13835636D02*
X6362443Y-13845160D01*
X6362443Y-13845160D02*
X6343396Y-13854684D01*
X6343396Y-13854684D02*
X6305301Y-13854684D01*
X6305301Y-13854684D02*
X6286253Y-13845160D01*
X6467205Y-13835636D02*
X6476729Y-13845160D01*
X6476729Y-13845160D02*
X6467205Y-13854684D01*
X6467205Y-13854684D02*
X6457682Y-13845160D01*
X6457682Y-13845160D02*
X6467205Y-13835636D01*
X6467205Y-13835636D02*
X6467205Y-13854684D01*
X6467205Y-13730874D02*
X6476729Y-13740398D01*
X6476729Y-13740398D02*
X6467205Y-13749922D01*
X6467205Y-13749922D02*
X6457682Y-13740398D01*
X6457682Y-13740398D02*
X6467205Y-13730874D01*
X6467205Y-13730874D02*
X6467205Y-13749922D01*
M02*
