G04 #@! TF.GenerationSoftware,KiCad,Pcbnew,7.0.7*
G04 #@! TF.CreationDate,2023-08-18T22:09:09-04:00*
G04 #@! TF.ProjectId,OpenAndromeda,4f70656e-416e-4647-926f-6d6564612e6b,rev?*
G04 #@! TF.SameCoordinates,Original*
G04 #@! TF.FileFunction,Soldermask,Top*
G04 #@! TF.FilePolarity,Negative*
%FSLAX46Y46*%
G04 Gerber Fmt 4.6, Leading zero omitted, Abs format (unit mm)*
G04 Created by KiCad (PCBNEW 7.0.7) date 2023-08-18 22:09:09*
%MOMM*%
%LPD*%
G01*
G04 APERTURE LIST*
G04 Aperture macros list*
%AMRoundRect*
0 Rectangle with rounded corners*
0 $1 Rounding radius*
0 $2 $3 $4 $5 $6 $7 $8 $9 X,Y pos of 4 corners*
0 Add a 4 corners polygon primitive as box body*
4,1,4,$2,$3,$4,$5,$6,$7,$8,$9,$2,$3,0*
0 Add four circle primitives for the rounded corners*
1,1,$1+$1,$2,$3*
1,1,$1+$1,$4,$5*
1,1,$1+$1,$6,$7*
1,1,$1+$1,$8,$9*
0 Add four rect primitives between the rounded corners*
20,1,$1+$1,$2,$3,$4,$5,0*
20,1,$1+$1,$4,$5,$6,$7,0*
20,1,$1+$1,$6,$7,$8,$9,0*
20,1,$1+$1,$8,$9,$2,$3,0*%
G04 Aperture macros list end*
%ADD10R,1.700000X1.700000*%
%ADD11O,1.700000X1.700000*%
%ADD12RoundRect,0.075000X0.075000X-0.662500X0.075000X0.662500X-0.075000X0.662500X-0.075000X-0.662500X0*%
%ADD13RoundRect,0.075000X0.662500X-0.075000X0.662500X0.075000X-0.662500X0.075000X-0.662500X-0.075000X0*%
G04 APERTURE END LIST*
D10*
X196342000Y-133350000D03*
D11*
X193802000Y-133350000D03*
X196342000Y-130810000D03*
X193802000Y-130810000D03*
X196342000Y-128270000D03*
X193802000Y-128270000D03*
X196342000Y-125730000D03*
X193802000Y-125730000D03*
X196342000Y-123190000D03*
X193802000Y-123190000D03*
X196342000Y-120650000D03*
X193802000Y-120650000D03*
X196342000Y-118110000D03*
X193802000Y-118110000D03*
X196342000Y-115570000D03*
X193802000Y-115570000D03*
X196342000Y-113030000D03*
X193802000Y-113030000D03*
X196342000Y-110490000D03*
X193802000Y-110490000D03*
X196342000Y-107950000D03*
X193802000Y-107950000D03*
X196342000Y-105410000D03*
X193802000Y-105410000D03*
X196342000Y-102870000D03*
X193802000Y-102870000D03*
X196342000Y-100330000D03*
X193802000Y-100330000D03*
X196342000Y-97790000D03*
X193802000Y-97790000D03*
X196342000Y-95250000D03*
X193802000Y-95250000D03*
X196342000Y-92710000D03*
X193802000Y-92710000D03*
X196342000Y-90170000D03*
X193802000Y-90170000D03*
X196342000Y-87630000D03*
X193802000Y-87630000D03*
X196342000Y-85090000D03*
X193802000Y-85090000D03*
D12*
X35705500Y-105726500D03*
X36205500Y-105726500D03*
X36705500Y-105726500D03*
X37205500Y-105726500D03*
X37705500Y-105726500D03*
X38205500Y-105726500D03*
X38705500Y-105726500D03*
X39205500Y-105726500D03*
X39705500Y-105726500D03*
X40205500Y-105726500D03*
X40705500Y-105726500D03*
X41205500Y-105726500D03*
X41705500Y-105726500D03*
X42205500Y-105726500D03*
X42705500Y-105726500D03*
X43205500Y-105726500D03*
X43705500Y-105726500D03*
X44205500Y-105726500D03*
X44705500Y-105726500D03*
X45205500Y-105726500D03*
X45705500Y-105726500D03*
X46205500Y-105726500D03*
X46705500Y-105726500D03*
X47205500Y-105726500D03*
X47705500Y-105726500D03*
X48205500Y-105726500D03*
X48705500Y-105726500D03*
X49205500Y-105726500D03*
X49705500Y-105726500D03*
X50205500Y-105726500D03*
X50705500Y-105726500D03*
X51205500Y-105726500D03*
X51705500Y-105726500D03*
X52205500Y-105726500D03*
X52705500Y-105726500D03*
X53205500Y-105726500D03*
D13*
X55118000Y-103814000D03*
X55118000Y-103314000D03*
X55118000Y-102814000D03*
X55118000Y-102314000D03*
X55118000Y-101814000D03*
X55118000Y-101314000D03*
X55118000Y-100814000D03*
X55118000Y-100314000D03*
X55118000Y-99814000D03*
X55118000Y-99314000D03*
X55118000Y-98814000D03*
X55118000Y-98314000D03*
X55118000Y-97814000D03*
X55118000Y-97314000D03*
X55118000Y-96814000D03*
X55118000Y-96314000D03*
X55118000Y-95814000D03*
X55118000Y-95314000D03*
X55118000Y-94814000D03*
X55118000Y-94314000D03*
X55118000Y-93814000D03*
X55118000Y-93314000D03*
X55118000Y-92814000D03*
X55118000Y-92314000D03*
X55118000Y-91814000D03*
X55118000Y-91314000D03*
X55118000Y-90814000D03*
X55118000Y-90314000D03*
X55118000Y-89814000D03*
X55118000Y-89314000D03*
X55118000Y-88814000D03*
X55118000Y-88314000D03*
X55118000Y-87814000D03*
X55118000Y-87314000D03*
X55118000Y-86814000D03*
X55118000Y-86314000D03*
D12*
X53205500Y-84401500D03*
X52705500Y-84401500D03*
X52205500Y-84401500D03*
X51705500Y-84401500D03*
X51205500Y-84401500D03*
X50705500Y-84401500D03*
X50205500Y-84401500D03*
X49705500Y-84401500D03*
X49205500Y-84401500D03*
X48705500Y-84401500D03*
X48205500Y-84401500D03*
X47705500Y-84401500D03*
X47205500Y-84401500D03*
X46705500Y-84401500D03*
X46205500Y-84401500D03*
X45705500Y-84401500D03*
X45205500Y-84401500D03*
X44705500Y-84401500D03*
X44205500Y-84401500D03*
X43705500Y-84401500D03*
X43205500Y-84401500D03*
X42705500Y-84401500D03*
X42205500Y-84401500D03*
X41705500Y-84401500D03*
X41205500Y-84401500D03*
X40705500Y-84401500D03*
X40205500Y-84401500D03*
X39705500Y-84401500D03*
X39205500Y-84401500D03*
X38705500Y-84401500D03*
X38205500Y-84401500D03*
X37705500Y-84401500D03*
X37205500Y-84401500D03*
X36705500Y-84401500D03*
X36205500Y-84401500D03*
X35705500Y-84401500D03*
D13*
X33793000Y-86314000D03*
X33793000Y-86814000D03*
X33793000Y-87314000D03*
X33793000Y-87814000D03*
X33793000Y-88314000D03*
X33793000Y-88814000D03*
X33793000Y-89314000D03*
X33793000Y-89814000D03*
X33793000Y-90314000D03*
X33793000Y-90814000D03*
X33793000Y-91314000D03*
X33793000Y-91814000D03*
X33793000Y-92314000D03*
X33793000Y-92814000D03*
X33793000Y-93314000D03*
X33793000Y-93814000D03*
X33793000Y-94314000D03*
X33793000Y-94814000D03*
X33793000Y-95314000D03*
X33793000Y-95814000D03*
X33793000Y-96314000D03*
X33793000Y-96814000D03*
X33793000Y-97314000D03*
X33793000Y-97814000D03*
X33793000Y-98314000D03*
X33793000Y-98814000D03*
X33793000Y-99314000D03*
X33793000Y-99814000D03*
X33793000Y-100314000D03*
X33793000Y-100814000D03*
X33793000Y-101314000D03*
X33793000Y-101814000D03*
X33793000Y-102314000D03*
X33793000Y-102814000D03*
X33793000Y-103314000D03*
X33793000Y-103814000D03*
M02*
