M48
INCH,TZ
T1C0.0394
%
G90
G05
T1
X76300Y-33500
X76300Y-34500
X76300Y-35500
X76300Y-36500
X76300Y-37500
X76300Y-38500
X76300Y-39500
X76300Y-40500
X76300Y-41500
X76300Y-42500
X76300Y-43500
X76300Y-44500
X76300Y-45500
X76300Y-46500
X76300Y-47500
X76300Y-48500
X76300Y-49500
X76300Y-50500
X76300Y-51500
X76300Y-52500
X77300Y-33500
X77300Y-34500
X77300Y-35500
X77300Y-36500
X77300Y-37500
X77300Y-38500
X77300Y-39500
X77300Y-40500
X77300Y-41500
X77300Y-42500
X77300Y-43500
X77300Y-44500
X77300Y-45500
X77300Y-46500
X77300Y-47500
X77300Y-48500
X77300Y-49500
X77300Y-50500
X77300Y-51500
X77300Y-52500
T0
M30
