%TF.GenerationSoftware,KiCad,Pcbnew,7.0.7*%
%TF.CreationDate,2023-08-18T22:09:48-04:00*%
%TF.ProjectId,OpenAndromeda,4f70656e-416e-4647-926f-6d6564612e6b,rev?*%
%TF.SameCoordinates,Original*%
%TF.FileFunction,Drillmap*%
%TF.FilePolarity,Positive*%
%FSLAX45Y45*%
G04 Gerber Fmt 4.5, Leading zero omitted, Abs format (unit mm)*
G04 Created by KiCad (PCBNEW 7.0.7) date 2023-08-18 22:09:48*
%MOMM*%
%LPD*%
G01*
G04 APERTURE LIST*
%ADD10C,0.100000*%
%ADD11C,0.200000*%
G04 APERTURE END LIST*
D10*
X7286000Y-9516000D02*
X7294000Y-10598000D01*
X5168000Y-7898000D02*
X5656000Y-7898000D01*
X19837400Y-8305800D02*
X19837400Y-13538200D01*
X7294000Y-10598000D02*
X8388000Y-11691000D01*
X5520000Y-10570000D02*
X5520000Y-8432800D01*
X5245000Y-11049000D02*
X5245000Y-10570000D01*
X4840000Y-8432800D02*
X4840000Y-8230000D01*
X19837400Y-13538200D02*
X19202400Y-13538200D01*
X5520000Y-8432800D02*
X4840000Y-8432800D01*
X7663000Y-13464000D02*
X5245000Y-11049000D01*
X5656000Y-7898000D02*
X7286000Y-9516000D01*
X8388000Y-11691000D02*
X16154400Y-11684000D01*
X16154400Y-11684000D02*
X19160000Y-8305800D01*
X4840000Y-8230000D02*
X5168000Y-7898000D01*
X5245000Y-10570000D02*
X5520000Y-10570000D01*
X19160000Y-8305800D02*
X19837400Y-8305800D01*
X19177000Y-13538200D02*
X7663000Y-13464000D01*
X19202400Y-13538200D02*
X19177000Y-13538200D01*
D11*
D10*
X19330200Y-8459000D02*
X19430200Y-8559000D01*
X19430200Y-8459000D02*
X19330200Y-8559000D01*
X19330200Y-8713000D02*
X19430200Y-8813000D01*
X19430200Y-8713000D02*
X19330200Y-8813000D01*
X19330200Y-8967000D02*
X19430200Y-9067000D01*
X19430200Y-8967000D02*
X19330200Y-9067000D01*
X19330200Y-9221000D02*
X19430200Y-9321000D01*
X19430200Y-9221000D02*
X19330200Y-9321000D01*
X19330200Y-9475000D02*
X19430200Y-9575000D01*
X19430200Y-9475000D02*
X19330200Y-9575000D01*
X19330200Y-9729000D02*
X19430200Y-9829000D01*
X19430200Y-9729000D02*
X19330200Y-9829000D01*
X19330200Y-9983000D02*
X19430200Y-10083000D01*
X19430200Y-9983000D02*
X19330200Y-10083000D01*
X19330200Y-10237000D02*
X19430200Y-10337000D01*
X19430200Y-10237000D02*
X19330200Y-10337000D01*
X19330200Y-10491000D02*
X19430200Y-10591000D01*
X19430200Y-10491000D02*
X19330200Y-10591000D01*
X19330200Y-10745000D02*
X19430200Y-10845000D01*
X19430200Y-10745000D02*
X19330200Y-10845000D01*
X19330200Y-10999000D02*
X19430200Y-11099000D01*
X19430200Y-10999000D02*
X19330200Y-11099000D01*
X19330200Y-11253000D02*
X19430200Y-11353000D01*
X19430200Y-11253000D02*
X19330200Y-11353000D01*
X19330200Y-11507000D02*
X19430200Y-11607000D01*
X19430200Y-11507000D02*
X19330200Y-11607000D01*
X19330200Y-11761000D02*
X19430200Y-11861000D01*
X19430200Y-11761000D02*
X19330200Y-11861000D01*
X19330200Y-12015000D02*
X19430200Y-12115000D01*
X19430200Y-12015000D02*
X19330200Y-12115000D01*
X19330200Y-12269000D02*
X19430200Y-12369000D01*
X19430200Y-12269000D02*
X19330200Y-12369000D01*
X19330200Y-12523000D02*
X19430200Y-12623000D01*
X19430200Y-12523000D02*
X19330200Y-12623000D01*
X19330200Y-12777000D02*
X19430200Y-12877000D01*
X19430200Y-12777000D02*
X19330200Y-12877000D01*
X19330200Y-13031000D02*
X19430200Y-13131000D01*
X19430200Y-13031000D02*
X19330200Y-13131000D01*
X19330200Y-13285000D02*
X19430200Y-13385000D01*
X19430200Y-13285000D02*
X19330200Y-13385000D01*
X19584200Y-8459000D02*
X19684200Y-8559000D01*
X19684200Y-8459000D02*
X19584200Y-8559000D01*
X19584200Y-8713000D02*
X19684200Y-8813000D01*
X19684200Y-8713000D02*
X19584200Y-8813000D01*
X19584200Y-8967000D02*
X19684200Y-9067000D01*
X19684200Y-8967000D02*
X19584200Y-9067000D01*
X19584200Y-9221000D02*
X19684200Y-9321000D01*
X19684200Y-9221000D02*
X19584200Y-9321000D01*
X19584200Y-9475000D02*
X19684200Y-9575000D01*
X19684200Y-9475000D02*
X19584200Y-9575000D01*
X19584200Y-9729000D02*
X19684200Y-9829000D01*
X19684200Y-9729000D02*
X19584200Y-9829000D01*
X19584200Y-9983000D02*
X19684200Y-10083000D01*
X19684200Y-9983000D02*
X19584200Y-10083000D01*
X19584200Y-10237000D02*
X19684200Y-10337000D01*
X19684200Y-10237000D02*
X19584200Y-10337000D01*
X19584200Y-10491000D02*
X19684200Y-10591000D01*
X19684200Y-10491000D02*
X19584200Y-10591000D01*
X19584200Y-10745000D02*
X19684200Y-10845000D01*
X19684200Y-10745000D02*
X19584200Y-10845000D01*
X19584200Y-10999000D02*
X19684200Y-11099000D01*
X19684200Y-10999000D02*
X19584200Y-11099000D01*
X19584200Y-11253000D02*
X19684200Y-11353000D01*
X19684200Y-11253000D02*
X19584200Y-11353000D01*
X19584200Y-11507000D02*
X19684200Y-11607000D01*
X19684200Y-11507000D02*
X19584200Y-11607000D01*
X19584200Y-11761000D02*
X19684200Y-11861000D01*
X19684200Y-11761000D02*
X19584200Y-11861000D01*
X19584200Y-12015000D02*
X19684200Y-12115000D01*
X19684200Y-12015000D02*
X19584200Y-12115000D01*
X19584200Y-12269000D02*
X19684200Y-12369000D01*
X19684200Y-12269000D02*
X19584200Y-12369000D01*
X19584200Y-12523000D02*
X19684200Y-12623000D01*
X19684200Y-12523000D02*
X19584200Y-12623000D01*
X19584200Y-12777000D02*
X19684200Y-12877000D01*
X19684200Y-12777000D02*
X19584200Y-12877000D01*
X19584200Y-13031000D02*
X19684200Y-13131000D01*
X19684200Y-13031000D02*
X19584200Y-13131000D01*
X19584200Y-13285000D02*
X19684200Y-13385000D01*
X19684200Y-13285000D02*
X19584200Y-13385000D01*
D11*
X5095777Y-13854684D02*
X5095777Y-13654684D01*
X5095777Y-13654684D02*
X5143396Y-13654684D01*
X5143396Y-13654684D02*
X5171967Y-13664208D01*
X5171967Y-13664208D02*
X5191015Y-13683255D01*
X5191015Y-13683255D02*
X5200539Y-13702303D01*
X5200539Y-13702303D02*
X5210063Y-13740398D01*
X5210063Y-13740398D02*
X5210063Y-13768969D01*
X5210063Y-13768969D02*
X5200539Y-13807065D01*
X5200539Y-13807065D02*
X5191015Y-13826112D01*
X5191015Y-13826112D02*
X5171967Y-13845160D01*
X5171967Y-13845160D02*
X5143396Y-13854684D01*
X5143396Y-13854684D02*
X5095777Y-13854684D01*
X5295777Y-13854684D02*
X5295777Y-13721350D01*
X5295777Y-13759446D02*
X5305301Y-13740398D01*
X5305301Y-13740398D02*
X5314824Y-13730874D01*
X5314824Y-13730874D02*
X5333872Y-13721350D01*
X5333872Y-13721350D02*
X5352920Y-13721350D01*
X5419586Y-13854684D02*
X5419586Y-13721350D01*
X5419586Y-13654684D02*
X5410063Y-13664208D01*
X5410063Y-13664208D02*
X5419586Y-13673731D01*
X5419586Y-13673731D02*
X5429110Y-13664208D01*
X5429110Y-13664208D02*
X5419586Y-13654684D01*
X5419586Y-13654684D02*
X5419586Y-13673731D01*
X5543396Y-13854684D02*
X5524348Y-13845160D01*
X5524348Y-13845160D02*
X5514824Y-13826112D01*
X5514824Y-13826112D02*
X5514824Y-13654684D01*
X5648158Y-13854684D02*
X5629110Y-13845160D01*
X5629110Y-13845160D02*
X5619586Y-13826112D01*
X5619586Y-13826112D02*
X5619586Y-13654684D01*
X5876729Y-13854684D02*
X5876729Y-13654684D01*
X5876729Y-13654684D02*
X5943396Y-13797541D01*
X5943396Y-13797541D02*
X6010062Y-13654684D01*
X6010062Y-13654684D02*
X6010062Y-13854684D01*
X6191015Y-13854684D02*
X6191015Y-13749922D01*
X6191015Y-13749922D02*
X6181491Y-13730874D01*
X6181491Y-13730874D02*
X6162443Y-13721350D01*
X6162443Y-13721350D02*
X6124348Y-13721350D01*
X6124348Y-13721350D02*
X6105301Y-13730874D01*
X6191015Y-13845160D02*
X6171967Y-13854684D01*
X6171967Y-13854684D02*
X6124348Y-13854684D01*
X6124348Y-13854684D02*
X6105301Y-13845160D01*
X6105301Y-13845160D02*
X6095777Y-13826112D01*
X6095777Y-13826112D02*
X6095777Y-13807065D01*
X6095777Y-13807065D02*
X6105301Y-13788017D01*
X6105301Y-13788017D02*
X6124348Y-13778493D01*
X6124348Y-13778493D02*
X6171967Y-13778493D01*
X6171967Y-13778493D02*
X6191015Y-13768969D01*
X6286253Y-13721350D02*
X6286253Y-13921350D01*
X6286253Y-13730874D02*
X6305301Y-13721350D01*
X6305301Y-13721350D02*
X6343396Y-13721350D01*
X6343396Y-13721350D02*
X6362443Y-13730874D01*
X6362443Y-13730874D02*
X6371967Y-13740398D01*
X6371967Y-13740398D02*
X6381491Y-13759446D01*
X6381491Y-13759446D02*
X6381491Y-13816588D01*
X6381491Y-13816588D02*
X6371967Y-13835636D01*
X6371967Y-13835636D02*
X6362443Y-13845160D01*
X6362443Y-13845160D02*
X6343396Y-13854684D01*
X6343396Y-13854684D02*
X6305301Y-13854684D01*
X6305301Y-13854684D02*
X6286253Y-13845160D01*
X6467205Y-13835636D02*
X6476729Y-13845160D01*
X6476729Y-13845160D02*
X6467205Y-13854684D01*
X6467205Y-13854684D02*
X6457682Y-13845160D01*
X6457682Y-13845160D02*
X6467205Y-13835636D01*
X6467205Y-13835636D02*
X6467205Y-13854684D01*
X6467205Y-13730874D02*
X6476729Y-13740398D01*
X6476729Y-13740398D02*
X6467205Y-13749922D01*
X6467205Y-13749922D02*
X6457682Y-13740398D01*
X6457682Y-13740398D02*
X6467205Y-13730874D01*
X6467205Y-13730874D02*
X6467205Y-13749922D01*
D10*
X4735000Y-14133200D02*
X4835000Y-14233200D01*
X4835000Y-14133200D02*
X4735000Y-14233200D01*
D11*
X5200539Y-14274684D02*
X5086253Y-14274684D01*
X5143396Y-14274684D02*
X5143396Y-14074684D01*
X5143396Y-14074684D02*
X5124348Y-14103255D01*
X5124348Y-14103255D02*
X5105301Y-14122303D01*
X5105301Y-14122303D02*
X5086253Y-14131827D01*
X5286253Y-14255636D02*
X5295777Y-14265160D01*
X5295777Y-14265160D02*
X5286253Y-14274684D01*
X5286253Y-14274684D02*
X5276729Y-14265160D01*
X5276729Y-14265160D02*
X5286253Y-14255636D01*
X5286253Y-14255636D02*
X5286253Y-14274684D01*
X5419586Y-14074684D02*
X5438634Y-14074684D01*
X5438634Y-14074684D02*
X5457682Y-14084208D01*
X5457682Y-14084208D02*
X5467205Y-14093731D01*
X5467205Y-14093731D02*
X5476729Y-14112779D01*
X5476729Y-14112779D02*
X5486253Y-14150874D01*
X5486253Y-14150874D02*
X5486253Y-14198493D01*
X5486253Y-14198493D02*
X5476729Y-14236588D01*
X5476729Y-14236588D02*
X5467205Y-14255636D01*
X5467205Y-14255636D02*
X5457682Y-14265160D01*
X5457682Y-14265160D02*
X5438634Y-14274684D01*
X5438634Y-14274684D02*
X5419586Y-14274684D01*
X5419586Y-14274684D02*
X5400539Y-14265160D01*
X5400539Y-14265160D02*
X5391015Y-14255636D01*
X5391015Y-14255636D02*
X5381491Y-14236588D01*
X5381491Y-14236588D02*
X5371967Y-14198493D01*
X5371967Y-14198493D02*
X5371967Y-14150874D01*
X5371967Y-14150874D02*
X5381491Y-14112779D01*
X5381491Y-14112779D02*
X5391015Y-14093731D01*
X5391015Y-14093731D02*
X5400539Y-14084208D01*
X5400539Y-14084208D02*
X5419586Y-14074684D01*
X5610062Y-14074684D02*
X5629110Y-14074684D01*
X5629110Y-14074684D02*
X5648158Y-14084208D01*
X5648158Y-14084208D02*
X5657682Y-14093731D01*
X5657682Y-14093731D02*
X5667205Y-14112779D01*
X5667205Y-14112779D02*
X5676729Y-14150874D01*
X5676729Y-14150874D02*
X5676729Y-14198493D01*
X5676729Y-14198493D02*
X5667205Y-14236588D01*
X5667205Y-14236588D02*
X5657682Y-14255636D01*
X5657682Y-14255636D02*
X5648158Y-14265160D01*
X5648158Y-14265160D02*
X5629110Y-14274684D01*
X5629110Y-14274684D02*
X5610062Y-14274684D01*
X5610062Y-14274684D02*
X5591015Y-14265160D01*
X5591015Y-14265160D02*
X5581491Y-14255636D01*
X5581491Y-14255636D02*
X5571967Y-14236588D01*
X5571967Y-14236588D02*
X5562444Y-14198493D01*
X5562444Y-14198493D02*
X5562444Y-14150874D01*
X5562444Y-14150874D02*
X5571967Y-14112779D01*
X5571967Y-14112779D02*
X5581491Y-14093731D01*
X5581491Y-14093731D02*
X5591015Y-14084208D01*
X5591015Y-14084208D02*
X5610062Y-14074684D01*
X5800539Y-14074684D02*
X5819586Y-14074684D01*
X5819586Y-14074684D02*
X5838634Y-14084208D01*
X5838634Y-14084208D02*
X5848158Y-14093731D01*
X5848158Y-14093731D02*
X5857682Y-14112779D01*
X5857682Y-14112779D02*
X5867205Y-14150874D01*
X5867205Y-14150874D02*
X5867205Y-14198493D01*
X5867205Y-14198493D02*
X5857682Y-14236588D01*
X5857682Y-14236588D02*
X5848158Y-14255636D01*
X5848158Y-14255636D02*
X5838634Y-14265160D01*
X5838634Y-14265160D02*
X5819586Y-14274684D01*
X5819586Y-14274684D02*
X5800539Y-14274684D01*
X5800539Y-14274684D02*
X5781491Y-14265160D01*
X5781491Y-14265160D02*
X5771967Y-14255636D01*
X5771967Y-14255636D02*
X5762443Y-14236588D01*
X5762443Y-14236588D02*
X5752920Y-14198493D01*
X5752920Y-14198493D02*
X5752920Y-14150874D01*
X5752920Y-14150874D02*
X5762443Y-14112779D01*
X5762443Y-14112779D02*
X5771967Y-14093731D01*
X5771967Y-14093731D02*
X5781491Y-14084208D01*
X5781491Y-14084208D02*
X5800539Y-14074684D01*
X5952920Y-14274684D02*
X5952920Y-14141350D01*
X5952920Y-14160398D02*
X5962443Y-14150874D01*
X5962443Y-14150874D02*
X5981491Y-14141350D01*
X5981491Y-14141350D02*
X6010063Y-14141350D01*
X6010063Y-14141350D02*
X6029110Y-14150874D01*
X6029110Y-14150874D02*
X6038634Y-14169922D01*
X6038634Y-14169922D02*
X6038634Y-14274684D01*
X6038634Y-14169922D02*
X6048158Y-14150874D01*
X6048158Y-14150874D02*
X6067205Y-14141350D01*
X6067205Y-14141350D02*
X6095777Y-14141350D01*
X6095777Y-14141350D02*
X6114824Y-14150874D01*
X6114824Y-14150874D02*
X6124348Y-14169922D01*
X6124348Y-14169922D02*
X6124348Y-14274684D01*
X6219586Y-14274684D02*
X6219586Y-14141350D01*
X6219586Y-14160398D02*
X6229110Y-14150874D01*
X6229110Y-14150874D02*
X6248158Y-14141350D01*
X6248158Y-14141350D02*
X6276729Y-14141350D01*
X6276729Y-14141350D02*
X6295777Y-14150874D01*
X6295777Y-14150874D02*
X6305301Y-14169922D01*
X6305301Y-14169922D02*
X6305301Y-14274684D01*
X6305301Y-14169922D02*
X6314824Y-14150874D01*
X6314824Y-14150874D02*
X6333872Y-14141350D01*
X6333872Y-14141350D02*
X6362443Y-14141350D01*
X6362443Y-14141350D02*
X6381491Y-14150874D01*
X6381491Y-14150874D02*
X6391015Y-14169922D01*
X6391015Y-14169922D02*
X6391015Y-14274684D01*
X6781491Y-14065160D02*
X6610063Y-14322303D01*
X7038634Y-14074684D02*
X7057682Y-14074684D01*
X7057682Y-14074684D02*
X7076729Y-14084208D01*
X7076729Y-14084208D02*
X7086253Y-14093731D01*
X7086253Y-14093731D02*
X7095777Y-14112779D01*
X7095777Y-14112779D02*
X7105301Y-14150874D01*
X7105301Y-14150874D02*
X7105301Y-14198493D01*
X7105301Y-14198493D02*
X7095777Y-14236588D01*
X7095777Y-14236588D02*
X7086253Y-14255636D01*
X7086253Y-14255636D02*
X7076729Y-14265160D01*
X7076729Y-14265160D02*
X7057682Y-14274684D01*
X7057682Y-14274684D02*
X7038634Y-14274684D01*
X7038634Y-14274684D02*
X7019586Y-14265160D01*
X7019586Y-14265160D02*
X7010063Y-14255636D01*
X7010063Y-14255636D02*
X7000539Y-14236588D01*
X7000539Y-14236588D02*
X6991015Y-14198493D01*
X6991015Y-14198493D02*
X6991015Y-14150874D01*
X6991015Y-14150874D02*
X7000539Y-14112779D01*
X7000539Y-14112779D02*
X7010063Y-14093731D01*
X7010063Y-14093731D02*
X7019586Y-14084208D01*
X7019586Y-14084208D02*
X7038634Y-14074684D01*
X7191015Y-14255636D02*
X7200539Y-14265160D01*
X7200539Y-14265160D02*
X7191015Y-14274684D01*
X7191015Y-14274684D02*
X7181491Y-14265160D01*
X7181491Y-14265160D02*
X7191015Y-14255636D01*
X7191015Y-14255636D02*
X7191015Y-14274684D01*
X7324348Y-14074684D02*
X7343396Y-14074684D01*
X7343396Y-14074684D02*
X7362444Y-14084208D01*
X7362444Y-14084208D02*
X7371967Y-14093731D01*
X7371967Y-14093731D02*
X7381491Y-14112779D01*
X7381491Y-14112779D02*
X7391015Y-14150874D01*
X7391015Y-14150874D02*
X7391015Y-14198493D01*
X7391015Y-14198493D02*
X7381491Y-14236588D01*
X7381491Y-14236588D02*
X7371967Y-14255636D01*
X7371967Y-14255636D02*
X7362444Y-14265160D01*
X7362444Y-14265160D02*
X7343396Y-14274684D01*
X7343396Y-14274684D02*
X7324348Y-14274684D01*
X7324348Y-14274684D02*
X7305301Y-14265160D01*
X7305301Y-14265160D02*
X7295777Y-14255636D01*
X7295777Y-14255636D02*
X7286253Y-14236588D01*
X7286253Y-14236588D02*
X7276729Y-14198493D01*
X7276729Y-14198493D02*
X7276729Y-14150874D01*
X7276729Y-14150874D02*
X7286253Y-14112779D01*
X7286253Y-14112779D02*
X7295777Y-14093731D01*
X7295777Y-14093731D02*
X7305301Y-14084208D01*
X7305301Y-14084208D02*
X7324348Y-14074684D01*
X7457682Y-14074684D02*
X7581491Y-14074684D01*
X7581491Y-14074684D02*
X7514825Y-14150874D01*
X7514825Y-14150874D02*
X7543396Y-14150874D01*
X7543396Y-14150874D02*
X7562444Y-14160398D01*
X7562444Y-14160398D02*
X7571967Y-14169922D01*
X7571967Y-14169922D02*
X7581491Y-14188969D01*
X7581491Y-14188969D02*
X7581491Y-14236588D01*
X7581491Y-14236588D02*
X7571967Y-14255636D01*
X7571967Y-14255636D02*
X7562444Y-14265160D01*
X7562444Y-14265160D02*
X7543396Y-14274684D01*
X7543396Y-14274684D02*
X7486253Y-14274684D01*
X7486253Y-14274684D02*
X7467206Y-14265160D01*
X7467206Y-14265160D02*
X7457682Y-14255636D01*
X7676729Y-14274684D02*
X7714825Y-14274684D01*
X7714825Y-14274684D02*
X7733872Y-14265160D01*
X7733872Y-14265160D02*
X7743396Y-14255636D01*
X7743396Y-14255636D02*
X7762444Y-14227065D01*
X7762444Y-14227065D02*
X7771967Y-14188969D01*
X7771967Y-14188969D02*
X7771967Y-14112779D01*
X7771967Y-14112779D02*
X7762444Y-14093731D01*
X7762444Y-14093731D02*
X7752920Y-14084208D01*
X7752920Y-14084208D02*
X7733872Y-14074684D01*
X7733872Y-14074684D02*
X7695777Y-14074684D01*
X7695777Y-14074684D02*
X7676729Y-14084208D01*
X7676729Y-14084208D02*
X7667206Y-14093731D01*
X7667206Y-14093731D02*
X7657682Y-14112779D01*
X7657682Y-14112779D02*
X7657682Y-14160398D01*
X7657682Y-14160398D02*
X7667206Y-14179446D01*
X7667206Y-14179446D02*
X7676729Y-14188969D01*
X7676729Y-14188969D02*
X7695777Y-14198493D01*
X7695777Y-14198493D02*
X7733872Y-14198493D01*
X7733872Y-14198493D02*
X7752920Y-14188969D01*
X7752920Y-14188969D02*
X7762444Y-14179446D01*
X7762444Y-14179446D02*
X7771967Y-14160398D01*
X7943396Y-14141350D02*
X7943396Y-14274684D01*
X7895777Y-14065160D02*
X7848158Y-14208017D01*
X7848158Y-14208017D02*
X7971967Y-14208017D01*
X8038634Y-14074684D02*
X8038634Y-14112779D01*
X8114825Y-14074684D02*
X8114825Y-14112779D01*
X8410063Y-14350874D02*
X8400539Y-14341350D01*
X8400539Y-14341350D02*
X8381491Y-14312779D01*
X8381491Y-14312779D02*
X8371968Y-14293731D01*
X8371968Y-14293731D02*
X8362444Y-14265160D01*
X8362444Y-14265160D02*
X8352920Y-14217541D01*
X8352920Y-14217541D02*
X8352920Y-14179446D01*
X8352920Y-14179446D02*
X8362444Y-14131827D01*
X8362444Y-14131827D02*
X8371968Y-14103255D01*
X8371968Y-14103255D02*
X8381491Y-14084208D01*
X8381491Y-14084208D02*
X8400539Y-14055636D01*
X8400539Y-14055636D02*
X8410063Y-14046112D01*
X8571968Y-14141350D02*
X8571968Y-14274684D01*
X8524349Y-14065160D02*
X8476730Y-14208017D01*
X8476730Y-14208017D02*
X8600539Y-14208017D01*
X8714825Y-14074684D02*
X8733872Y-14074684D01*
X8733872Y-14074684D02*
X8752920Y-14084208D01*
X8752920Y-14084208D02*
X8762444Y-14093731D01*
X8762444Y-14093731D02*
X8771968Y-14112779D01*
X8771968Y-14112779D02*
X8781491Y-14150874D01*
X8781491Y-14150874D02*
X8781491Y-14198493D01*
X8781491Y-14198493D02*
X8771968Y-14236588D01*
X8771968Y-14236588D02*
X8762444Y-14255636D01*
X8762444Y-14255636D02*
X8752920Y-14265160D01*
X8752920Y-14265160D02*
X8733872Y-14274684D01*
X8733872Y-14274684D02*
X8714825Y-14274684D01*
X8714825Y-14274684D02*
X8695777Y-14265160D01*
X8695777Y-14265160D02*
X8686253Y-14255636D01*
X8686253Y-14255636D02*
X8676730Y-14236588D01*
X8676730Y-14236588D02*
X8667206Y-14198493D01*
X8667206Y-14198493D02*
X8667206Y-14150874D01*
X8667206Y-14150874D02*
X8676730Y-14112779D01*
X8676730Y-14112779D02*
X8686253Y-14093731D01*
X8686253Y-14093731D02*
X8695777Y-14084208D01*
X8695777Y-14084208D02*
X8714825Y-14074684D01*
X9019587Y-14274684D02*
X9019587Y-14074684D01*
X9105301Y-14274684D02*
X9105301Y-14169922D01*
X9105301Y-14169922D02*
X9095777Y-14150874D01*
X9095777Y-14150874D02*
X9076730Y-14141350D01*
X9076730Y-14141350D02*
X9048158Y-14141350D01*
X9048158Y-14141350D02*
X9029111Y-14150874D01*
X9029111Y-14150874D02*
X9019587Y-14160398D01*
X9229111Y-14274684D02*
X9210063Y-14265160D01*
X9210063Y-14265160D02*
X9200539Y-14255636D01*
X9200539Y-14255636D02*
X9191015Y-14236588D01*
X9191015Y-14236588D02*
X9191015Y-14179446D01*
X9191015Y-14179446D02*
X9200539Y-14160398D01*
X9200539Y-14160398D02*
X9210063Y-14150874D01*
X9210063Y-14150874D02*
X9229111Y-14141350D01*
X9229111Y-14141350D02*
X9257682Y-14141350D01*
X9257682Y-14141350D02*
X9276730Y-14150874D01*
X9276730Y-14150874D02*
X9286253Y-14160398D01*
X9286253Y-14160398D02*
X9295777Y-14179446D01*
X9295777Y-14179446D02*
X9295777Y-14236588D01*
X9295777Y-14236588D02*
X9286253Y-14255636D01*
X9286253Y-14255636D02*
X9276730Y-14265160D01*
X9276730Y-14265160D02*
X9257682Y-14274684D01*
X9257682Y-14274684D02*
X9229111Y-14274684D01*
X9410063Y-14274684D02*
X9391015Y-14265160D01*
X9391015Y-14265160D02*
X9381492Y-14246112D01*
X9381492Y-14246112D02*
X9381492Y-14074684D01*
X9562444Y-14265160D02*
X9543396Y-14274684D01*
X9543396Y-14274684D02*
X9505301Y-14274684D01*
X9505301Y-14274684D02*
X9486253Y-14265160D01*
X9486253Y-14265160D02*
X9476730Y-14246112D01*
X9476730Y-14246112D02*
X9476730Y-14169922D01*
X9476730Y-14169922D02*
X9486253Y-14150874D01*
X9486253Y-14150874D02*
X9505301Y-14141350D01*
X9505301Y-14141350D02*
X9543396Y-14141350D01*
X9543396Y-14141350D02*
X9562444Y-14150874D01*
X9562444Y-14150874D02*
X9571968Y-14169922D01*
X9571968Y-14169922D02*
X9571968Y-14188969D01*
X9571968Y-14188969D02*
X9476730Y-14208017D01*
X9648158Y-14265160D02*
X9667206Y-14274684D01*
X9667206Y-14274684D02*
X9705301Y-14274684D01*
X9705301Y-14274684D02*
X9724349Y-14265160D01*
X9724349Y-14265160D02*
X9733873Y-14246112D01*
X9733873Y-14246112D02*
X9733873Y-14236588D01*
X9733873Y-14236588D02*
X9724349Y-14217541D01*
X9724349Y-14217541D02*
X9705301Y-14208017D01*
X9705301Y-14208017D02*
X9676730Y-14208017D01*
X9676730Y-14208017D02*
X9657682Y-14198493D01*
X9657682Y-14198493D02*
X9648158Y-14179446D01*
X9648158Y-14179446D02*
X9648158Y-14169922D01*
X9648158Y-14169922D02*
X9657682Y-14150874D01*
X9657682Y-14150874D02*
X9676730Y-14141350D01*
X9676730Y-14141350D02*
X9705301Y-14141350D01*
X9705301Y-14141350D02*
X9724349Y-14150874D01*
X9800539Y-14350874D02*
X9810063Y-14341350D01*
X9810063Y-14341350D02*
X9829111Y-14312779D01*
X9829111Y-14312779D02*
X9838634Y-14293731D01*
X9838634Y-14293731D02*
X9848158Y-14265160D01*
X9848158Y-14265160D02*
X9857682Y-14217541D01*
X9857682Y-14217541D02*
X9857682Y-14179446D01*
X9857682Y-14179446D02*
X9848158Y-14131827D01*
X9848158Y-14131827D02*
X9838634Y-14103255D01*
X9838634Y-14103255D02*
X9829111Y-14084208D01*
X9829111Y-14084208D02*
X9810063Y-14055636D01*
X9810063Y-14055636D02*
X9800539Y-14046112D01*
M02*
