G04 #@! TF.GenerationSoftware,KiCad,Pcbnew,7.0.7*
G04 #@! TF.CreationDate,2023-08-18T22:09:09-04:00*
G04 #@! TF.ProjectId,OpenAndromeda,4f70656e-416e-4647-926f-6d6564612e6b,rev?*
G04 #@! TF.SameCoordinates,Original*
G04 #@! TF.FileFunction,Soldermask,Bot*
G04 #@! TF.FilePolarity,Negative*
%FSLAX46Y46*%
G04 Gerber Fmt 4.6, Leading zero omitted, Abs format (unit mm)*
G04 Created by KiCad (PCBNEW 7.0.7) date 2023-08-18 22:09:09*
%MOMM*%
%LPD*%
G01*
G04 APERTURE LIST*
%ADD10R,1.700000X1.700000*%
%ADD11O,1.700000X1.700000*%
G04 APERTURE END LIST*
D10*
X196342000Y-133350000D03*
D11*
X193802000Y-133350000D03*
X196342000Y-130810000D03*
X193802000Y-130810000D03*
X196342000Y-128270000D03*
X193802000Y-128270000D03*
X196342000Y-125730000D03*
X193802000Y-125730000D03*
X196342000Y-123190000D03*
X193802000Y-123190000D03*
X196342000Y-120650000D03*
X193802000Y-120650000D03*
X196342000Y-118110000D03*
X193802000Y-118110000D03*
X196342000Y-115570000D03*
X193802000Y-115570000D03*
X196342000Y-113030000D03*
X193802000Y-113030000D03*
X196342000Y-110490000D03*
X193802000Y-110490000D03*
X196342000Y-107950000D03*
X193802000Y-107950000D03*
X196342000Y-105410000D03*
X193802000Y-105410000D03*
X196342000Y-102870000D03*
X193802000Y-102870000D03*
X196342000Y-100330000D03*
X193802000Y-100330000D03*
X196342000Y-97790000D03*
X193802000Y-97790000D03*
X196342000Y-95250000D03*
X193802000Y-95250000D03*
X196342000Y-92710000D03*
X193802000Y-92710000D03*
X196342000Y-90170000D03*
X193802000Y-90170000D03*
X196342000Y-87630000D03*
X193802000Y-87630000D03*
X196342000Y-85090000D03*
X193802000Y-85090000D03*
M02*
